<svg id="visual" viewBox="0 0 1920 1080" width="1920" height="1080" xmlns="http://www.w3.org/2000/svg" xmlns:xlink="http://www.w3.org/1999/xlink" version="1.1"><rect x="0" y="0" width="1920" height="1080" fill="#001220"></rect><defs><linearGradient id="grad1_0" x1="43.8%" y1="100%" x2="100%" y2="0%"><stop offset="14.444444444444446%" stop-color="#2874b1" stop-opacity="1"></stop><stop offset="85.55555555555554%" stop-color="#2874b1" stop-opacity="1"></stop></linearGradient></defs><defs><linearGradient id="grad1_1" x1="43.8%" y1="100%" x2="100%" y2="0%"><stop offset="14.444444444444446%" stop-color="#2874b1" stop-opacity="1"></stop><stop offset="85.55555555555554%" stop-color="#001220" stop-opacity="1"></stop></linearGradient></defs><defs><linearGradient id="grad2_0" x1="0%" y1="100%" x2="56.3%" y2="0%"><stop offset="14.444444444444446%" stop-color="#2874b1" stop-opacity="1"></stop><stop offset="85.55555555555554%" stop-color="#2874b1" stop-opacity="1"></stop></linearGradient></defs><defs><linearGradient id="grad2_1" x1="0%" y1="100%" x2="56.3%" y2="0%"><stop offset="14.444444444444446%" stop-color="#001220" stop-opacity="1"></stop><stop offset="85.55555555555554%" stop-color="#2874b1" stop-opacity="1"></stop></linearGradient></defs><g transform="translate(1920, 1080)"><path d="M-702 0C-687.3 -71.1 -672.6 -142.3 -653.4 -212.3C-634.2 -282.3 -610.5 -351.2 -567.9 -412.6C-525.3 -474.1 -463.7 -528.1 -393.8 -542C-323.9 -556 -245.6 -529.7 -178.6 -549.7C-111.6 -569.7 -55.8 -635.8 0 -702L0 0Z" fill="#114064"></path><path d="M-351 0C-343.6 -35.6 -336.3 -71.1 -326.7 -106.1C-317.1 -141.2 -305.3 -175.6 -284 -206.3C-262.7 -237 -231.9 -264.1 -196.9 -271C-161.9 -278 -122.8 -264.9 -89.3 -274.9C-55.8 -284.8 -27.9 -317.9 0 -351L0 0Z" fill="#2874b1"></path></g><g transform="translate(0, 0)"><path d="M702 0C676.1 66.6 650.2 133.2 633.4 205.8C616.6 278.4 609 357.1 567.9 412.6C526.9 468.2 452.4 500.5 387.4 533.1C322.3 565.7 266.6 598.6 203.6 626.7C140.7 654.9 70.3 678.5 0 702L0 0Z" fill="#114064"></path><path d="M351 0C338 33.3 325.1 66.6 316.7 102.9C308.3 139.2 304.5 178.5 284 206.3C263.4 234.1 226.2 250.3 193.7 266.6C161.1 282.9 133.3 299.3 101.8 313.4C70.3 327.5 35.2 339.2 0 351L0 0Z" fill="#2874b1"></path></g></svg>